HIERARCHY
ROOT Root
{
  OFFSET 0.0 0.0 0.0
  CHANNELS 6 Xposition Yposition Zposition Zrotation Yrotation Xrotation
  JOINT Hips
  {
    OFFSET 0.0 100.0 0.0
    CHANNELS 6 Xposition Yposition Zposition Zrotation Yrotation Xrotation
    JOINT Spine1
    {
      OFFSET -0.013727 5.003763 -0.053727
      CHANNELS 3 Zrotation Yrotation Xrotation
      JOINT Spine2
      {
        OFFSET -0.0 7.125301 -0.029825
        CHANNELS 3 Zrotation Yrotation Xrotation
        JOINT Chest
        {
          OFFSET -1e-06 7.550063 -0.815971
          CHANNELS 3 Zrotation Yrotation Xrotation
          JOINT Neck1
          {
            OFFSET -0.181677 26.311295 -0.553348
            CHANNELS 3 Zrotation Yrotation Xrotation
            JOINT Neck2
            {
              OFFSET -3e-06 7.709397 2.302585
              CHANNELS 3 Zrotation Yrotation Xrotation
              JOINT Head
              {
                OFFSET -5e-06 6.128916 1.953709
                CHANNELS 3 Zrotation Yrotation Xrotation
                JOINT HeadEnd
                {
                  OFFSET 0.003598 16.065403 -1.835379
                  CHANNELS 3 Zrotation Yrotation Xrotation
                }
                JOINT Jaw
                {
                  OFFSET 0.002637 0.475592 3.094941
                  CHANNELS 3 Zrotation Yrotation Xrotation
                }
                JOINT LeftEye
                {
                  OFFSET 3.206381 5.380205 7.586883
                  CHANNELS 3 Zrotation Yrotation Xrotation
                }
                JOINT RightEye
                {
                  OFFSET -3.22244 5.361869 7.558234
                  CHANNELS 3 Zrotation Yrotation Xrotation
                }
              }
            }
          }
          JOINT LeftShoulder
          {
            OFFSET 1.621652 23.237164 5.113413
            CHANNELS 3 Zrotation Yrotation Xrotation
            JOINT LeftArm
            {
              OFFSET 14.919846 2e-06 -5.502326
              CHANNELS 3 Zrotation Yrotation Xrotation
              JOINT LeftForeArm
              {
                OFFSET 28.739307 0.0 -0.002588
                CHANNELS 3 Zrotation Yrotation Xrotation
                JOINT LeftHand
                {
                  OFFSET 27.093981 -1e-06 0.002609
                  CHANNELS 3 Zrotation Yrotation Xrotation
                  JOINT LeftHandThumb1
                  {
                    OFFSET 2.276482 -1.392045 3.191413
                    CHANNELS 3 Zrotation Yrotation Xrotation
                    JOINT LeftHandThumb2
                    {
                      OFFSET 4.012836 -1.828127 1.641654
                      CHANNELS 3 Zrotation Yrotation Xrotation
                      JOINT LeftHandThumb3
                      {
                        OFFSET 2.798515 0.0 -3e-06
                        CHANNELS 3 Zrotation Yrotation Xrotation
                        JOINT LeftHandThumbEnd
                        {
                          OFFSET 3.180793 -4e-06 4e-06
                          CHANNELS 3 Zrotation Yrotation Xrotation
                        }
                      }
                    }
                  }
                  JOINT LeftHandIndex1
                  {
                    OFFSET 3.247555 -0.531998 2.296169
                    CHANNELS 3 Zrotation Yrotation Xrotation
                    JOINT LeftHandIndex2
                    {
                      OFFSET 6.364578 0.01206 0.1786
                      CHANNELS 3 Zrotation Yrotation Xrotation
                      JOINT LeftHandIndex3
                      {
                        OFFSET 3.662364 0.0 0.0
                        CHANNELS 3 Zrotation Yrotation Xrotation
                        JOINT LeftHandIndex4
                        {
                          OFFSET 2.329242 4e-06 4e-06
                          CHANNELS 3 Zrotation Yrotation Xrotation
                          JOINT LeftHandIndexEnd
                          {
                            OFFSET 2.759615 -0.180537 -0.113024
                            CHANNELS 3 Zrotation Yrotation Xrotation
                          }
                        }
                      }
                    }
                  }
                  JOINT LeftHandMiddle1
                  {
                    OFFSET 3.163495 0.240981 1.000332
                    CHANNELS 3 Zrotation Yrotation Xrotation
                    JOINT LeftHandMiddle2
                    {
                      OFFSET 6.19078 -0.259278 -1.002548
                      CHANNELS 3 Zrotation Yrotation Xrotation
                      JOINT LeftHandMiddle3
                      {
                        OFFSET 4.35652 -4e-06 -1e-06
                        CHANNELS 3 Zrotation Yrotation Xrotation
                        JOINT LeftHandMiddle4
                        {
                          OFFSET 2.996877 -8e-06 0.0
                          CHANNELS 3 Zrotation Yrotation Xrotation
                          JOINT LeftHandMiddleEnd
                          {
                            OFFSET 2.304287 -0.294569 -0.031741
                            CHANNELS 3 Zrotation Yrotation Xrotation
                          }
                        }
                      }
                    }
                  }
                  JOINT LeftHandRing1
                  {
                    OFFSET 2.882643 -0.053652 -0.322543
                    CHANNELS 3 Zrotation Yrotation Xrotation
                    JOINT LeftHandRing2
                    {
                      OFFSET 5.854541 -0.486202 -1.373841
                      CHANNELS 3 Zrotation Yrotation Xrotation
                      JOINT LeftHandRing3
                      {
                        OFFSET 4.350578 0.0 3e-06
                        CHANNELS 3 Zrotation Yrotation Xrotation
                        JOINT LeftHandRing4
                        {
                          OFFSET 2.651321 7e-06 2e-06
                          CHANNELS 3 Zrotation Yrotation Xrotation
                          JOINT LeftHandRingEnd
                          {
                            OFFSET 1.936105 0.077687 -7.1e-05
                            CHANNELS 3 Zrotation Yrotation Xrotation
                          }
                        }
                      }
                    }
                  }
                  JOINT LeftHandPinky1
                  {
                    OFFSET 2.8655 -0.310005 -1.600378
                    CHANNELS 3 Zrotation Yrotation Xrotation
                    JOINT LeftHandPinky2
                    {
                      OFFSET 5.087849 -1.331141 -1.77123
                      CHANNELS 3 Zrotation Yrotation Xrotation
                      JOINT LeftHandPinky3
                      {
                        OFFSET 3.070974 4e-06 0.0
                        CHANNELS 3 Zrotation Yrotation Xrotation
                        JOINT LeftHandPinky4
                        {
                          OFFSET 1.549672 0.0 1e-06
                          CHANNELS 3 Zrotation Yrotation Xrotation
                          JOINT LeftHandPinkyEnd
                          {
                            OFFSET 1.944893 -0.157802 0.057219
                            CHANNELS 3 Zrotation Yrotation Xrotation
                          }
                        }
                      }
                    }
                  }
                }
              }
            }
          }
          JOINT RightShoulder
          {
            OFFSET -1.380118 23.180309 5.214158
            CHANNELS 3 Zrotation Yrotation Xrotation
            JOINT RightArm
            {
              OFFSET -15.037196 1.2e-05 -5.545604
              CHANNELS 3 Zrotation Yrotation Xrotation
              JOINT RightForeArm
              {
                OFFSET -28.736639 2e-06 -0.002597
                CHANNELS 3 Zrotation Yrotation Xrotation
                JOINT RightHand
                {
                  OFFSET -27.133619 -0.0 0.002613
                  CHANNELS 3 Zrotation Yrotation Xrotation
                  JOINT RightHandThumb1
                  {
                    OFFSET -2.274032 -1.383988 3.163127
                    CHANNELS 3 Zrotation Yrotation Xrotation
                    JOINT RightHandThumb2
                    {
                      OFFSET -4.011429 -1.827466 1.640914
                      CHANNELS 3 Zrotation Yrotation Xrotation
                      JOINT RightHandThumb3
                      {
                        OFFSET -2.794935 -4e-06 -3e-06
                        CHANNELS 3 Zrotation Yrotation Xrotation
                        JOINT RightHandThumbEnd
                        {
                          OFFSET -3.183852 4e-06 1e-06
                          CHANNELS 3 Zrotation Yrotation Xrotation
                        }
                      }
                    }
                  }
                  JOINT RightHandIndex1
                  {
                    OFFSET -3.253266 -0.520057 2.282866
                    CHANNELS 3 Zrotation Yrotation Xrotation
                    JOINT RightHandIndex2
                    {
                      OFFSET -6.341917 0.012471 0.178266
                      CHANNELS 3 Zrotation Yrotation Xrotation
                      JOINT RightHandIndex3
                      {
                        OFFSET -3.654871 -8e-06 -0.0
                        CHANNELS 3 Zrotation Yrotation Xrotation
                        JOINT RightHandIndex4
                        {
                          OFFSET -2.327586 0.0 1e-06
                          CHANNELS 3 Zrotation Yrotation Xrotation
                          JOINT RightHandIndexEnd
                          {
                            OFFSET -2.76179 -0.180656 -0.113078
                            CHANNELS 3 Zrotation Yrotation Xrotation
                          }
                        }
                      }
                    }
                  }
                  JOINT RightHandMiddle1
                  {
                    OFFSET -3.168106 0.246593 1.00103
                    CHANNELS 3 Zrotation Yrotation Xrotation
                    JOINT RightHandMiddle2
                    {
                      OFFSET -6.180828 -0.258836 -1.000895
                      CHANNELS 3 Zrotation Yrotation Xrotation
                      JOINT RightHandMiddle3
                      {
                        OFFSET -4.348901 0.0 -0.0
                        CHANNELS 3 Zrotation Yrotation Xrotation
                        JOINT RightHandMiddle4
                        {
                          OFFSET -3.00024 -4e-06 -2e-06
                          CHANNELS 3 Zrotation Yrotation Xrotation
                          JOINT RightHandMiddleEnd
                          {
                            OFFSET -2.30252 -0.29437 -0.031706
                            CHANNELS 3 Zrotation Yrotation Xrotation
                          }
                        }
                      }
                    }
                  }
                  JOINT RightHandRing1
                  {
                    OFFSET -2.88569 -0.067952 -0.308858
                    CHANNELS 3 Zrotation Yrotation Xrotation
                    JOINT RightHandRing2
                    {
                      OFFSET -5.854198 -0.48613 -1.373731
                      CHANNELS 3 Zrotation Yrotation Xrotation
                      JOINT RightHandRing3
                      {
                        OFFSET -4.33881 -4e-06 -0.0
                        CHANNELS 3 Zrotation Yrotation Xrotation
                        JOINT RightHandRing4
                        {
                          OFFSET -2.654903 -4e-06 4e-06
                          CHANNELS 3 Zrotation Yrotation Xrotation
                          JOINT RightHandRingEnd
                          {
                            OFFSET -1.933568 0.077527 -5.2e-05
                            CHANNELS 3 Zrotation Yrotation Xrotation
                          }
                        }
                      }
                    }
                  }
                  JOINT RightHandPinky1
                  {
                    OFFSET -2.866425 -0.342796 -1.584145
                    CHANNELS 3 Zrotation Yrotation Xrotation
                    JOINT RightHandPinky2
                    {
                      OFFSET -5.091371 -1.332055 -1.772385
                      CHANNELS 3 Zrotation Yrotation Xrotation
                      JOINT RightHandPinky3
                      {
                        OFFSET -3.062664 -4e-06 1e-06
                        CHANNELS 3 Zrotation Yrotation Xrotation
                        JOINT RightHandPinky4
                        {
                          OFFSET -1.546529 4e-06 -2e-06
                          CHANNELS 3 Zrotation Yrotation Xrotation
                          JOINT RightHandPinkyEnd
                          {
                            OFFSET -1.945119 -0.157718 0.057211
                            CHANNELS 3 Zrotation Yrotation Xrotation
                          }
                        }
                      }
                    }
                  }
                }
              }
            }
          }
        }
      }
    }
    JOINT LeftLeg
    {
      OFFSET 10.043214 -8.434526 2.595655
      CHANNELS 3 Zrotation Yrotation Xrotation
      JOINT LeftShin
      {
        OFFSET -1e-06 -43.221752 -0.802913
        CHANNELS 3 Zrotation Yrotation Xrotation
        JOINT LeftFoot
        {
          OFFSET 1e-06 -42.155094 -3.481523
          CHANNELS 3 Zrotation Yrotation Xrotation
          JOINT LeftToeBase
          {
            OFFSET 0.0 -5.059472 13.231529
            CHANNELS 3 Zrotation Yrotation Xrotation
            JOINT LeftToeEnd
            {
              OFFSET -0.009607 -1.647619 6.513017
              CHANNELS 3 Zrotation Yrotation Xrotation
            }
          }
        }
      }
    }
    JOINT RightLeg
    {
      OFFSET -10.047278 -8.29526 2.620317
      CHANNELS 3 Zrotation Yrotation Xrotation
      JOINT RightShin
      {
        OFFSET 1e-06 -43.362206 -0.805556
        CHANNELS 3 Zrotation Yrotation Xrotation
        JOINT RightFoot
        {
          OFFSET 2e-06 -42.117393 -3.478398
          CHANNELS 3 Zrotation Yrotation Xrotation
          JOINT RightToeBase
          {
            OFFSET -0.0 -5.079609 13.284196
            CHANNELS 3 Zrotation Yrotation Xrotation
            JOINT RightToeEnd
            {
              OFFSET 0.009532 -1.634378 6.460591
              CHANNELS 3 Zrotation Yrotation Xrotation
            }
          }
        }
      }
    }
  }
}
MOTION
Frames: 4
Frame Time: 0.03333333333333333
0.0 0.0 0.0 0.0 -0.0 0.0 -2.435092 50.782597 -2.735606 1.834472 0.468917 50.592587 0.652791 0.738049 18.217659 -0.117085 -0.26347 1.110257 -1.333335 -2.0305 13.391928 1.012552 3.842592 -10.822239 0.40621 6.293877 -3.133859 -3.630262 7.647245 -0.295117 7.7e-05 -2.3e-05 5e-06 0.140054 0.139479 -0.211232 0.90017 -3.517701 -10.582187 -0.622834 3.81472 -10.668306 6.736984 -25.032436 8.671941 -8.816235 -53.318729 -24.184502 1.902045 -25.545319 -0.254499 65.972794 1.275599 -7.48128 -5.882106 9.861284 0.702591 -10.936872 -0.360575 7.156205 0.0 8.774824 -2e-06 -14.869802 17.757133 6.644231 -1.844032 2.498507 -2.507278 -10.163599 4.678944 4.621109 -20.976021 -3e-06 3e-06 -21.226286 2.451699 -3.593995 -0.0 -6e-06 -0.0 -1.362681 2.240798 -0.746324 -21.334913 0.58491 3.008325 -13.821214 -2e-06 3e-06 -23.887173 -0.249077 -0.839481 -58.54821 2.888742 -2.122492 -0.294024 1.679687 0.833257 -14.21821 0.093215 1.300581 -34.212048 -0.287563 0.967175 -20.033213 0.964539 1.212845 -0.0 -0.0 -0.0 -3.440388 0.788233 0.501656 -15.928185 -3.16731 2.999708 -6.338828 -1e-06 2e-06 -18.123444 3.648183 -4.90567 -5e-06 1e-06 -1e-06 -4.529892 24.977531 6.816278 42.284206 38.957058 -18.33902 7.712016 57.270016 5.767733 -65.888008 35.662529 17.312801 2.243542 -5.255037 -3.180157 14.282896 -0.826592 6.952505 -4e-06 -12.690608 1e-06 17.18539 -18.457224 1.95007 1.665667 -1.955922 -2.8783 4.727798 -4.170587 4.993925 11.020528 5e-06 -0.0 12.109055 -3.735714 -2.866783 0.0 -0.0 1e-06 1.291986 -1.928549 -1.49809 14.800138 0.56747 3.865608 14.242577 -1.341734 -6.660657 19.631975 0.143929 -0.648242 51.263577 -0.895777 -6.550667 0.353029 -1.511151 -0.031941 20.222799 3.684314 2.31663 18.787279 9e-06 1e-06 10.751631 -0.479867 1.397907 0.0 1e-06 -0.0 3.273808 0.305948 -0.580111 21.486824 11.830381 2.266132 8.162931 3e-06 -0.0 18.399088 -3.798983 -4.940576 2e-06 -0.0 -1e-06 0.836584 -0.608039 -45.777237 -0.334692 0.083885 98.384438 1.797222 10.704395 33.060112 2.36886 -2.383497 1.499859 0.0 0.0 2e-06 1.507634 2.336589 -54.706245 -0.549877 -0.866074 105.080956 15.682787 -2.941746 20.892843 -1.981526 0.843435 6.255544 -0.0 0.0 -4e-06 
0.0 0.0 0.0 0.0 -0.0 0.0 -2.602911 50.887985 -1.943006 1.295663 1.29021 49.888039 0.959102 1.077003 18.615692 -0.277658 0.089851 1.120211 -1.453924 -1.641812 12.946703 1.372819 3.553606 -10.618025 0.716694 6.059866 -3.17553 -3.416524 7.81347 -0.547597 7.7e-05 -2.3e-05 6e-06 0.096909 0.138306 -0.207837 0.844046 -3.519619 -10.534149 -0.649007 3.803106 -10.589251 6.475692 -25.440266 8.546454 -10.487278 -55.436829 -22.873203 1.723075 -22.056166 -0.030571 65.992363 -0.69153 -9.644474 -5.882109 9.86129 0.702589 -10.936874 -0.360574 7.156208 2e-06 8.774826 -3e-06 -14.604374 17.9797 6.40388 -1.844033 2.498505 -2.507277 -10.163603 4.678946 4.621109 -20.97603 -1e-06 4e-06 -21.226294 2.451701 -3.594 0.0 -6e-06 -2e-06 -1.362681 2.240799 -0.746324 -21.334921 0.584912 3.008326 -13.821219 1e-06 3e-06 -23.887178 -0.249074 -0.839482 -58.005054 2.956749 -2.262482 -0.294025 1.679689 0.833255 -14.218211 0.093215 1.300582 -34.212051 -0.28756 0.967171 -20.033218 0.964539 1.212844 -0.0 0.0 1e-06 -3.44039 0.788234 0.501655 -15.928189 -3.16731 2.999707 -6.338827 -2e-06 3e-06 -18.123453 3.648186 -4.905671 -5e-06 1e-06 -2e-06 -5.829568 25.622581 6.590833 33.945053 37.535831 -29.005457 6.461352 64.521675 4.203124 -61.628143 33.1497 16.70517 2.243543 -5.255041 -3.180158 14.282898 -0.826595 6.952504 0.0 -12.690612 -2e-06 15.89578 -17.988804 2.793772 1.665667 -1.955923 -2.878301 4.727801 -4.17059 4.993925 11.020534 3e-06 -1e-06 12.109056 -3.735719 -2.866786 0.0 0.0 -0.0 1.291986 -1.92855 -1.49809 14.800136 0.567469 3.86561 14.242579 -1.341737 -6.660661 19.631981 0.143926 -0.648244 50.530773 -0.762585 -6.334783 0.353029 -1.511152 -0.03194 20.222803 3.684313 2.316632 18.787283 5e-06 -1e-06 10.751634 -0.479869 1.397906 -1e-06 -0.0 0.0 3.273809 0.305947 -0.58011 21.486828 11.830382 2.266136 8.16293 1e-06 -0.0 18.399097 -3.798988 -4.940581 3e-06 0.0 -2e-06 1.822802 0.816317 -50.484753 -0.352324 0.10782 106.883545 3.202299 10.778504 31.895348 2.383154 -2.58275 1.823686 0.0 0.0 1e-06 2.232019 2.566507 -52.299816 -0.571236 -1.05105 102.684387 16.166014 -2.103312 21.66511 -2.034372 0.781565 5.967656 -0.0 -0.0 -4e-06 
0.0 0.0 0.0 0.0 -0.0 0.0 -2.819556 50.801491 -0.528908 0.700063 1.800221 48.983898 1.123746 1.45296 18.922842 -0.314185 0.557468 1.20804 -1.406659 -1.133026 12.899531 1.370517 3.390523 -10.469121 0.68284 5.52691 -3.429172 -3.358121 7.874108 -1.117812 7.7e-05 -2.2e-05 4e-06 0.083799 0.094244 -0.235993 0.801384 -3.553622 -10.510152 -0.63075 3.743362 -10.565921 6.511375 -25.393171 8.383452 -12.497852 -57.054207 -21.800455 1.521039 -20.615778 0.115947 65.417038 -2.441322 -10.834974 -5.882109 9.861292 0.702588 -10.936876 -0.360575 7.15621 -0.0 8.774828 -4e-06 -14.526485 18.443808 6.423104 -1.844033 2.498506 -2.507279 -10.163604 4.678946 4.621111 -20.976034 -0.0 4e-06 -21.226295 2.451698 -3.594 0.0 -6e-06 -2e-06 -1.362682 2.240799 -0.746325 -21.334925 0.584911 3.008328 -13.82122 -1e-06 4e-06 -23.887178 -0.249076 -0.83948 -58.352596 2.739918 -2.117772 -0.294024 1.679689 0.833254 -14.218214 0.093216 1.300583 -34.212055 -0.287561 0.967173 -20.033222 0.964539 1.212846 -0.0 0.0 1e-06 -3.440389 0.788234 0.501657 -15.928192 -3.167311 2.99971 -6.33883 -1e-06 3e-06 -18.123455 3.648185 -4.905673 -5e-06 1e-06 -1e-06 -7.710943 26.744577 6.234002 24.733545 36.27956 -39.205639 3.502802 64.129013 1.697194 -58.423767 28.103779 15.309302 2.243541 -5.255037 -3.180158 14.282894 -0.826594 6.952505 -2e-06 -12.690608 0.0 15.219595 -17.971247 3.224401 1.665666 -1.955922 -2.878299 4.7278 -4.170587 4.993923 11.020528 3e-06 -0.0 12.109052 -3.735717 -2.866784 0.0 0.0 -1e-06 1.291986 -1.92855 -1.498088 14.800131 0.567469 3.865609 14.242571 -1.341736 -6.660657 19.631969 0.143925 -0.648242 50.256859 -0.622127 -6.092773 0.353029 -1.511151 -0.03194 20.222792 3.684311 2.316632 18.787273 5e-06 0.0 10.751626 -0.479868 1.397906 -1e-06 -0.0 -1e-06 3.273807 0.305947 -0.58011 21.486818 11.830377 2.266135 8.162928 2e-06 0.0 18.399088 -3.798985 -4.940575 2e-06 0.0 -1e-06 2.9321 2.042752 -55.806015 -0.333857 0.174934 114.514458 4.949998 11.094449 32.045788 2.431895 -2.639398 2.037879 -0.0 0.0 0.0 3.075399 2.344252 -49.758457 -0.544988 -1.019595 100.23484 16.023369 -0.426541 22.932684 -2.008182 0.772976 5.788512 -0.0 0.0 -3e-06 
0.0 0.0 0.0 0.0 -0.0 0.0 -2.828233 50.662136 0.995974 0.128748 1.90967 47.999363 1.245531 1.600089 19.544916 -0.160551 1.122738 1.529279 -1.562565 -0.545631 12.661792 1.187505 3.026146 -10.710844 0.581384 5.424792 -3.460693 -3.53764 8.075027 -2.111362 7.7e-05 -2.2e-05 5e-06 0.135385 0.040928 -0.21258 0.86644 -3.600657 -10.420479 -0.594521 3.678366 -10.423556 6.55358 -24.703033 8.012893 -14.750503 -58.716419 -20.974987 0.921221 -19.964531 0.22859 65.867073 -5.22731 -10.349541 -5.882108 9.861286 0.702589 -10.936873 -0.360575 7.156206 -1e-06 8.774827 0.0 -14.562218 18.372168 6.398902 -1.844032 2.498504 -2.507278 -10.163601 4.678944 4.621111 -20.976027 -4e-06 4e-06 -21.226288 2.451696 -3.593999 0.0 -6e-06 -2e-06 -1.362681 2.240798 -0.746324 -21.334915 0.584909 3.008326 -13.821218 -1e-06 4e-06 -23.887175 -0.249078 -0.839482 -58.357246 2.561011 -1.867321 -0.294025 1.679687 0.833254 -14.21821 0.093213 1.300581 -34.212051 -0.287564 0.967172 -20.033218 0.964538 1.212846 -0.0 0.0 1e-06 -3.440388 0.788233 0.501657 -15.928189 -3.16731 2.999711 -6.338828 -2e-06 1e-06 -18.123447 3.648184 -4.90567 -4e-06 1e-06 -1e-06 -10.113723 27.839008 5.328718 16.739901 34.98312 -46.835712 1.424425 58.735207 -0.157885 -55.589878 22.352449 13.092154 2.243539 -5.255037 -3.180158 14.282883 -0.82659 6.952503 -4e-06 -12.690601 -1e-06 15.040469 -17.715071 3.28268 1.665665 -1.955921 -2.878299 4.727796 -4.170584 4.993924 11.02052 5e-06 -2e-06 12.109045 -3.735712 -2.866785 0.0 0.0 -0.0 1.291985 -1.928549 -1.498091 14.800122 0.567472 3.865607 14.242563 -1.341734 -6.660656 19.631956 0.143928 -0.648242 49.923855 -0.495174 -6.037064 0.353029 -1.51115 -0.03194 20.222784 3.684314 2.316632 18.787266 7e-06 1e-06 10.751624 -0.479866 1.397907 -1e-06 1e-06 -0.0 3.273805 0.305947 -0.580111 21.486801 11.830376 2.266135 8.162924 3e-06 1e-06 18.399071 -3.798981 -4.94057 2e-06 0.0 -1e-06 3.622225 2.705247 -61.39756 -0.219351 0.511905 120.48571 6.026084 10.402144 32.7672 2.39423 -2.698392 2.515426 0.0 0.0 2e-06 3.49261 1.770949 -47.220833 -0.341265 -0.74684 98.546806 16.717516 1.519363 23.769821 -1.960143 0.743219 4.724928 -1e-06 -0.0 -4e-06 
